<svg width="1436" height="783" xmlns="http://www.w3.org/2000/svg"><g><path d="M-90.88322330266237,-71.41084222123027L-93.98645158857107,819.6605377085507L-91.20937692001462,188.90571769326925Z" fill="#b49579" stroke="#b49579"></path><path d="M-90.88322330266237,-71.41084222123027L-91.20937692001462,188.90571769326925L-31.067209094762802,85.90657686814666Z" fill="#a56928" stroke="#a56928"></path><path d="M-90.88322330266237,-71.41084222123027L-31.067209094762802,85.90657686814666L15.518578421324492,-70.71763517335057Z" fill="#8e490c" stroke="#8e490c"></path><path d="M-90.88322330266237,-71.41084222123027L15.518578421324492,-70.71763517335057L457.2030787356198,-85.84064515307546Z" fill="#94511d" stroke="#94511d"></path><path d="M-90.88322330266237,-71.41084222123027L457.2030787356198,-85.84064515307546L566.8444017507136,-90.52482025697827Z" fill="#a86d41" stroke="#a86d41"></path><path d="M15.518578421324492,-70.71763517335057L-31.067209094762802,85.90657686814666L93.80886489525437,24.202895537018776Z" fill="#a26420" stroke="#a26420"></path><path d="M15.518578421324492,-70.71763517335057L93.80886489525437,24.202895537018776L154.27098715677857,-37.16234415769577Z" fill="#9e5e1e" stroke="#9e5e1e"></path><path d="M15.518578421324492,-70.71763517335057L154.27098715677857,-37.16234415769577L297.09137216210365,-48.853380512446165Z" fill="#a16123" stroke="#a16123"></path><path d="M15.518578421324492,-70.71763517335057L297.09137216210365,-48.853380512446165L457.2030787356198,-85.84064515307546Z" fill="#aa6d36" stroke="#aa6d36"></path><path d="M154.27098715677857,-37.16234415769577L93.80886489525437,24.202895537018776L151.21659889817238,19.25107128918171Z" fill="#af7531" stroke="#af7531"></path><path d="M154.27098715677857,-37.16234415769577L151.21659889817238,19.25107128918171L297.09137216210365,-48.853380512446165Z" fill="#b27836" stroke="#b27836"></path><path d="M297.09137216210365,-48.853380512446165L151.21659889817238,19.25107128918171L311.48285863921046,50.556977074593306Z" fill="#c38e49" stroke="#c38e49"></path><path d="M297.09137216210365,-48.853380512446165L311.48285863921046,50.556977074593306L392.56082341074944,-61.64372345432639Z" fill="#bf8b50" stroke="#bf8b50"></path><path d="M297.09137216210365,-48.853380512446165L392.56082341074944,-61.64372345432639L457.2030787356198,-85.84064515307546Z" fill="#b37c4f" stroke="#b37c4f"></path><path d="M392.56082341074944,-61.64372345432639L311.48285863921046,50.556977074593306L412.81958620995283,74.25544178113341Z" fill="#cfa265" stroke="#cfa265"></path><path d="M392.56082341074944,-61.64372345432639L412.81958620995283,74.25544178113341L457.2030787356198,-85.84064515307546Z" fill="#c39360" stroke="#c39360"></path><path d="M457.2030787356198,-85.84064515307546L412.81958620995283,74.25544178113341L527.3049583286047,55.075779128819704Z" fill="#d3a975" stroke="#d3a975"></path><path d="M457.2030787356198,-85.84064515307546L527.3049583286047,55.075779128819704L568.1267153285444,31.606173515319824Z" fill="#cba476" stroke="#cba476"></path><path d="M457.2030787356198,-85.84064515307546L568.1267153285444,31.606173515319824L566.8444017507136,-90.52482025697827Z" fill="#b98f67" stroke="#b98f67"></path><path d="M566.8444017507136,-90.52482025697827L568.1267153285444,31.606173515319824L688.9740296639502,-38.02064696326852Z" fill="#b79672" stroke="#b79672"></path><path d="M566.8444017507136,-90.52482025697827L688.9740296639502,-38.02064696326852L924.5042406581342,-87.03602943569422Z" fill="#9d8472" stroke="#9d8472"></path><path d="M566.8444017507136,-90.52482025697827L924.5042406581342,-87.03602943569422L1225.770582202822,-91.79582903161645Z" fill="#6e685c" stroke="#6e685c"></path><path d="M688.9740296639502,-38.02064696326852L568.1267153285444,31.606173515319824L743.1419063173234,37.73112766444683Z" fill="#c0aa84" stroke="#c0aa84"></path><path d="M688.9740296639502,-38.02064696326852L743.1419063173234,37.73112766444683L802.3167803697288,30.646740049123764Z" fill="#b5a785" stroke="#b5a785"></path><path d="M688.9740296639502,-38.02064696326852L802.3167803697288,30.646740049123764L841.7730890028179,-35.934771336615086Z" fill="#a59879" stroke="#a59879"></path><path d="M688.9740296639502,-38.02064696326852L841.7730890028179,-35.934771336615086L924.5042406581342,-87.03602943569422Z" fill="#8e8267" stroke="#8e8267"></path><path d="M841.7730890028179,-35.934771336615086L802.3167803697288,30.646740049123764L954.6533244661987,64.48394946753979Z" fill="#9c9e79" stroke="#9c9e79"></path><path d="M841.7730890028179,-35.934771336615086L954.6533244661987,64.48394946753979L924.5042406581342,-87.03602943569422Z" fill="#868767" stroke="#868767"></path><path d="M924.5042406581342,-87.03602943569422L954.6533244661987,64.48394946753979L1016.9717529974878,-58.73774278908968Z" fill="#767d5d" stroke="#767d5d"></path><path d="M924.5042406581342,-87.03602943569422L1016.9717529974878,-58.73774278908968L1225.770582202822,-91.79582903161645Z" fill="#545746" stroke="#545746"></path><path d="M1016.9717529974878,-58.73774278908968L954.6533244661987,64.48394946753979L1076.2330924347043,67.76421591639519Z" fill="#7e8c66" stroke="#7e8c66"></path><path d="M1016.9717529974878,-58.73774278908968L1076.2330924347043,67.76421591639519L1125.4374761879444,25.22790916264057Z" fill="#6f7c58" stroke="#6f7c58"></path><path d="M1016.9717529974878,-58.73774278908968L1125.4374761879444,25.22790916264057L1177.6475072652102,-65.68083727732301Z" fill="#5a6344" stroke="#5a6344"></path><path d="M1016.9717529974878,-58.73774278908968L1177.6475072652102,-65.68083727732301L1225.770582202822,-91.79582903161645Z" fill="#464c38" stroke="#464c38"></path><path d="M1177.6475072652102,-65.68083727732301L1125.4374761879444,25.22790916264057L1226.809447221458,35.20774397999048Z" fill="#576644" stroke="#576644"></path><path d="M1177.6475072652102,-65.68083727732301L1226.809447221458,35.20774397999048L1225.770582202822,-91.79582903161645Z" fill="#464f31" stroke="#464f31"></path><path d="M1225.770582202822,-91.79582903161645L1226.809447221458,35.20774397999048L1385.9183407016098,-70.06464887410402Z" fill="#464326" stroke="#464326"></path><path d="M1225.770582202822,-91.79582903161645L1385.9183407016098,-70.06464887410402L1611.502815913409,-82.17358477413654Z" fill="#381c0d" stroke="#381c0d"></path><path d="M1385.9183407016098,-70.06464887410402L1226.809447221458,35.20774397999048L1387.5092772766948,69.275479670614Z" fill="#58522e" stroke="#58522e"></path><path d="M1385.9183407016098,-70.06464887410402L1387.5092772766948,69.275479670614L1464.9312564358115,58.69640547782183Z" fill="#5a4924" stroke="#5a4924"></path><path d="M1385.9183407016098,-70.06464887410402L1464.9312564358115,58.69640547782183L1501.9845084659755,-25.946728438138962Z" fill="#503413" stroke="#503413"></path><path d="M1385.9183407016098,-70.06464887410402L1501.9845084659755,-25.946728438138962L1611.502815913409,-82.17358477413654Z" fill="#401700" stroke="#401700"></path><path d="M1501.9845084659755,-25.946728438138962L1464.9312564358115,58.69640547782183L1622.846710383892,29.56139426678419Z" fill="#5b3a19" stroke="#5b3a19"></path><path d="M1501.9845084659755,-25.946728438138962L1622.846710383892,29.56139426678419L1611.502815913409,-82.17358477413654Z" fill="#4b2509" stroke="#4b2509"></path><path d="M-31.067209094762802,85.90657686814666L-91.20937692001462,188.90571769326925L72.65654927119613,175.47454556450248Z" fill="#c39347" stroke="#c39347"></path><path d="M-31.067209094762802,85.90657686814666L72.65654927119613,175.47454556450248L93.80886489525437,24.202895537018776Z" fill="#c18c3e" stroke="#c18c3e"></path><path d="M93.80886489525437,24.202895537018776L72.65654927119613,175.47454556450248L125.76884407550097,169.4908920675516Z" fill="#d3a451" stroke="#d3a451"></path><path d="M93.80886489525437,24.202895537018776L125.76884407550097,169.4908920675516L151.21659889817238,19.25107128918171Z" fill="#c59245" stroke="#c59245"></path><path d="M151.21659889817238,19.25107128918171L125.76884407550097,169.4908920675516L236.34435335174203,136.21000973507762Z" fill="#d9ac5b" stroke="#d9ac5b"></path><path d="M151.21659889817238,19.25107128918171L236.34435335174203,136.21000973507762L311.48285863921046,50.556977074593306Z" fill="#d6a75a" stroke="#d6a75a"></path><path d="M311.48285863921046,50.556977074593306L236.34435335174203,136.21000973507762L380.530762784183,163.88989502564073Z" fill="#ecc678" stroke="#ecc678"></path><path d="M311.48285863921046,50.556977074593306L380.530762784183,163.88989502564073L412.81958620995283,74.25544178113341Z" fill="#e8c37d" stroke="#e8c37d"></path><path d="M412.81958620995283,74.25544178113341L380.530762784183,163.88989502564073L526.5307309478521,155.14580419287086Z" fill="#f8da97" stroke="#f8da97"></path><path d="M412.81958620995283,74.25544178113341L526.5307309478521,155.14580419287086L527.3049583286047,55.075779128819704Z" fill="#eecf93" stroke="#eecf93"></path><path d="M527.3049583286047,55.075779128819704L526.5307309478521,155.14580419287086L568.1267153285444,31.606173515319824Z" fill="#e4c992" stroke="#e4c992"></path><path d="M568.1267153285444,31.606173515319824L526.5307309478521,155.14580419287086L629.3472056090832,184.74485773593187Z" fill="#efdca3" stroke="#efdca3"></path><path d="M568.1267153285444,31.606173515319824L629.3472056090832,184.74485773593187L743.1419063173234,37.73112766444683Z" fill="#dbcb9b" stroke="#dbcb9b"></path><path d="M743.1419063173234,37.73112766444683L629.3472056090832,184.74485773593187L708.7004861049354,180.86548745632172Z" fill="#e6e0af" stroke="#e6e0af"></path><path d="M743.1419063173234,37.73112766444683L708.7004861049354,180.86548745632172L824.2846878059208,149.3149083852768Z" fill="#d7d8a7" stroke="#d7d8a7"></path><path d="M743.1419063173234,37.73112766444683L824.2846878059208,149.3149083852768L802.3167803697288,30.646740049123764Z" fill="#bfbe93" stroke="#bfbe93"></path><path d="M802.3167803697288,30.646740049123764L824.2846878059208,149.3149083852768L954.6533244661987,64.48394946753979Z" fill="#b2ba8e" stroke="#b2ba8e"></path><path d="M954.6533244661987,64.48394946753979L824.2846878059208,149.3149083852768L955.0331650674343,154.03889460489154Z" fill="#b5c695" stroke="#b5c695"></path><path d="M954.6533244661987,64.48394946753979L955.0331650674343,154.03889460489154L1076.2330924347043,67.76421591639519Z" fill="#9aaf81" stroke="#9aaf81"></path><path d="M1076.2330924347043,67.76421591639519L955.0331650674343,154.03889460489154L1074.683338701725,163.5601018741727Z" fill="#9eb785" stroke="#9eb785"></path><path d="M1076.2330924347043,67.76421591639519L1074.683338701725,163.5601018741727L1173.4578628279269,161.08348039910197Z" fill="#91ac7a" stroke="#91ac7a"></path><path d="M1076.2330924347043,67.76421591639519L1173.4578628279269,161.08348039910197L1125.4374761879444,25.22790916264057Z" fill="#7e9568" stroke="#7e9568"></path><path d="M1125.4374761879444,25.22790916264057L1173.4578628279269,161.08348039910197L1226.809447221458,35.20774397999048Z" fill="#71885c" stroke="#71885c"></path><path d="M1226.809447221458,35.20774397999048L1173.4578628279269,161.08348039910197L1301.6399802081287,166.8955154903233Z" fill="#7d9462" stroke="#7d9462"></path><path d="M1226.809447221458,35.20774397999048L1301.6399802081287,166.8955154903233L1387.5092772766948,69.275479670614Z" fill="#727a4d" stroke="#727a4d"></path><path d="M1387.5092772766948,69.275479670614L1301.6399802081287,166.8955154903233L1375.1391467824578,137.24905939772725Z" fill="#7e814f" stroke="#7e814f"></path><path d="M1387.5092772766948,69.275479670614L1375.1391467824578,137.24905939772725L1464.9312564358115,58.69640547782183Z" fill="#72683b" stroke="#72683b"></path><path d="M1464.9312564358115,58.69640547782183L1375.1391467824578,137.24905939772725L1513.6745771206915,134.19919479638338Z" fill="#796b3b" stroke="#796b3b"></path><path d="M1464.9312564358115,58.69640547782183L1513.6745771206915,134.19919479638338L1622.846710383892,29.56139426678419Z" fill="#6d512a" stroke="#6d512a"></path><path d="M1622.846710383892,29.56139426678419L1513.6745771206915,134.19919479638338L1569.1670960374177,187.62945346534252Z" fill="#7b6538" stroke="#7b6538"></path><path d="M1622.846710383892,29.56139426678419L1569.1670960374177,187.62945346534252L1603.2341545075178,265.81216456368566Z" fill="#807049" stroke="#807049"></path><path d="M1622.846710383892,29.56139426678419L1603.2341545075178,265.81216456368566L1607.3752305284142,357.3977109976113Z" fill="#807962" stroke="#807962"></path><path d="M1622.846710383892,29.56139426678419L1607.3752305284142,357.3977109976113L1624.2369179055095,494.43745225667953Z" fill="#7d8078" stroke="#7d8078"></path><path d="M-91.20937692001462,188.90571769326925L-93.98645158857107,819.6605377085507L-78.71900452300906,629.8941164650023Z" fill="#677a5e" stroke="#677a5e"></path><path d="M-91.20937692001462,188.90571769326925L-78.71900452300906,629.8941164650023L-64.12450471892953,275.7993369549513Z" fill="#b2987e" stroke="#b2987e"></path><path d="M-91.20937692001462,188.90571769326925L-64.12450471892953,275.7993369549513L72.65654927119613,175.47454556450248Z" fill="#c19b60" stroke="#c19b60"></path><path d="M72.65654927119613,175.47454556450248L-64.12450471892953,275.7993369549513L91.67313667014241,240.4694178327918Z" fill="#cbaa73" stroke="#cbaa73"></path><path d="M72.65654927119613,175.47454556450248L91.67313667014241,240.4694178327918L125.76884407550097,169.4908920675516Z" fill="#d5b270" stroke="#d5b270"></path><path d="M125.76884407550097,169.4908920675516L91.67313667014241,240.4694178327918L156.84774987399578,255.36390597000718Z" fill="#dabb80" stroke="#dabb80"></path><path d="M125.76884407550097,169.4908920675516L156.84774987399578,255.36390597000718L236.34435335174203,136.21000973507762Z" fill="#e1c07b" stroke="#e1c07b"></path><path d="M236.34435335174203,136.21000973507762L156.84774987399578,255.36390597000718L271.04056414216757,240.3114053979516Z" fill="#e9ce8e" stroke="#e9ce8e"></path><path d="M236.34435335174203,136.21000973507762L271.04056414216757,240.3114053979516L380.530762784183,163.88989502564073Z" fill="#efd38f" stroke="#efd38f"></path><path d="M380.530762784183,163.88989502564073L271.04056414216757,240.3114053979516L368.05568158626556,248.16963573917747Z" fill="#f2dda8" stroke="#f2dda8"></path><path d="M380.530762784183,163.88989502564073L368.05568158626556,248.16963573917747L457.56676776334643,245.69134823977947Z" fill="#f6e5b5" stroke="#f6e5b5"></path><path d="M380.530762784183,163.88989502564073L457.56676776334643,245.69134823977947L526.5307309478521,155.14580419287086Z" fill="#f9e6b2" stroke="#f9e6b2"></path><path d="M526.5307309478521,155.14580419287086L457.56676776334643,245.69134823977947L640.859561637044,256.3397248648107Z" fill="#f5eec9" stroke="#f5eec9"></path><path d="M526.5307309478521,155.14580419287086L640.859561637044,256.3397248648107L629.3472056090832,184.74485773593187Z" fill="#efeac4" stroke="#efeac4"></path><path d="M629.3472056090832,184.74485773593187L640.859561637044,256.3397248648107L708.7004861049354,180.86548745632172Z" fill="#e9eccc" stroke="#e9eccc"></path><path d="M708.7004861049354,180.86548745632172L640.859561637044,256.3397248648107L705.7324801199138,294.4949109107256Z" fill="#e6f2dd" stroke="#e6f2dd"></path><path d="M708.7004861049354,180.86548745632172L705.7324801199138,294.4949109107256L818.922770768404,270.472022369504Z" fill="#ddf0df" stroke="#ddf0df"></path><path d="M708.7004861049354,180.86548745632172L818.922770768404,270.472022369504L824.2846878059208,149.3149083852768Z" fill="#d4e3c5" stroke="#d4e3c5"></path><path d="M824.2846878059208,149.3149083852768L818.922770768404,270.472022369504L955.0331650674343,154.03889460489154Z" fill="#c2d9b8" stroke="#c2d9b8"></path><path d="M955.0331650674343,154.03889460489154L818.922770768404,270.472022369504L909.5386074855924,308.25789853930473Z" fill="#bbdecb" stroke="#bbdecb"></path><path d="M955.0331650674343,154.03889460489154L909.5386074855924,308.25789853930473L1071.2169386260211,297.1101335249841Z" fill="#a9d5c4" stroke="#a9d5c4"></path><path d="M955.0331650674343,154.03889460489154L1071.2169386260211,297.1101335249841L1074.683338701725,163.5601018741727Z" fill="#9fc4a6" stroke="#9fc4a6"></path><path d="M1074.683338701725,163.5601018741727L1071.2169386260211,297.1101335249841L1178.0718378536403,273.98253520950675Z" fill="#91bfab" stroke="#91bfab"></path><path d="M1074.683338701725,163.5601018741727L1178.0718378536403,273.98253520950675L1173.4578628279269,161.08348039910197Z" fill="#8ab292" stroke="#8ab292"></path><path d="M1173.4578628279269,161.08348039910197L1178.0718378536403,273.98253520950675L1239.4582393579185,277.046670075506Z" fill="#80af9a" stroke="#80af9a"></path><path d="M1173.4578628279269,161.08348039910197L1239.4582393579185,277.046670075506L1301.6399802081287,166.8955154903233Z" fill="#80a283" stroke="#80a283"></path><path d="M1301.6399802081287,166.8955154903233L1239.4582393579185,277.046670075506L1403.7331148795784,283.19018989801407Z" fill="#809c88" stroke="#809c88"></path><path d="M1301.6399802081287,166.8955154903233L1403.7331148795784,283.19018989801407L1375.1391467824578,137.24905939772725Z" fill="#808e6d" stroke="#808e6d"></path><path d="M1375.1391467824578,137.24905939772725L1403.7331148795784,283.19018989801407L1513.6745771206915,134.19919479638338Z" fill="#80815d" stroke="#80815d"></path><path d="M1513.6745771206915,134.19919479638338L1403.7331148795784,283.19018989801407L1474.5025254786015,297.62690333649516Z" fill="#80846e" stroke="#80846e"></path><path d="M1513.6745771206915,134.19919479638338L1474.5025254786015,297.62690333649516L1569.1670960374177,187.62945346534252Z" fill="#80775d" stroke="#80775d"></path><path d="M1569.1670960374177,187.62945346534252L1474.5025254786015,297.62690333649516L1603.2341545075178,265.81216456368566Z" fill="#807e70" stroke="#807e70"></path><path d="M-64.12450471892953,275.7993369549513L-78.71900452300906,629.8941164650023L-21.59238688647747,464.246356356889Z" fill="#949373" stroke="#949373"></path><path d="M-64.12450471892953,275.7993369549513L-21.59238688647747,464.246356356889L-18.121403586119413,415.07763070985675Z" fill="#b8a17f" stroke="#b8a17f"></path><path d="M-64.12450471892953,275.7993369549513L-18.121403586119413,415.07763070985675L71.70770797878504,403.199060279876Z" fill="#bea882" stroke="#bea882"></path><path d="M-64.12450471892953,275.7993369549513L71.70770797878504,403.199060279876L91.67313667014241,240.4694178327918Z" fill="#c8af84" stroke="#c8af84"></path><path d="M91.67313667014241,240.4694178327918L71.70770797878504,403.199060279876L156.84774987399578,255.36390597000718Z" fill="#d4be92" stroke="#d4be92"></path><path d="M156.84774987399578,255.36390597000718L71.70770797878504,403.199060279876L157.2906126640737,397.1116997860372Z" fill="#d4c39a" stroke="#d4c39a"></path><path d="M156.84774987399578,255.36390597000718L157.2906126640737,397.1116997860372L271.04056414216757,240.3114053979516Z" fill="#e2d0a2" stroke="#e2d0a2"></path><path d="M271.04056414216757,240.3114053979516L157.2906126640737,397.1116997860372L300.9184831008315,398.57254346832633Z" fill="#e6daaf" stroke="#e6daaf"></path><path d="M271.04056414216757,240.3114053979516L300.9184831008315,398.57254346832633L368.05568158626556,248.16963573917747Z" fill="#eee1b9" stroke="#eee1b9"></path><path d="M368.05568158626556,248.16963573917747L300.9184831008315,398.57254346832633L400.4667042940855,375.79362865537405Z" fill="#eee6c5" stroke="#eee6c5"></path><path d="M368.05568158626556,248.16963573917747L400.4667042940855,375.79362865537405L457.56676776334643,245.69134823977947Z" fill="#f4eccb" stroke="#f4eccb"></path><path d="M457.56676776334643,245.69134823977947L400.4667042940855,375.79362865537405L519.3064212426543,366.52353992685676Z" fill="#f5f2d8" stroke="#f5f2d8"></path><path d="M457.56676776334643,245.69134823977947L519.3064212426543,366.52353992685676L600.7036872208118,354.20520912855864Z" fill="#f2f4df" stroke="#f2f4df"></path><path d="M457.56676776334643,245.69134823977947L600.7036872208118,354.20520912855864L640.859561637044,256.3397248648107Z" fill="#f1f4de" stroke="#f1f4de"></path><path d="M640.859561637044,256.3397248648107L600.7036872208118,354.20520912855864L705.7324801199138,294.4949109107256Z" fill="#e7f4e6" stroke="#e7f4e6"></path><path d="M705.7324801199138,294.4949109107256L600.7036872208118,354.20520912855864L711.5037880837917,401.1399507150054Z" fill="#e2f5ec" stroke="#e2f5ec"></path><path d="M705.7324801199138,294.4949109107256L711.5037880837917,401.1399507150054L818.922770768404,270.472022369504Z" fill="#d9f2e9" stroke="#d9f2e9"></path><path d="M818.922770768404,270.472022369504L711.5037880837917,401.1399507150054L861.5898256748915,357.94515796005726Z" fill="#ccece5" stroke="#ccece5"></path><path d="M818.922770768404,270.472022369504L861.5898256748915,357.94515796005726L909.5386074855924,308.25789853930473Z" fill="#bfe4da" stroke="#bfe4da"></path><path d="M909.5386074855924,308.25789853930473L861.5898256748915,357.94515796005726L968.2057792693377,353.92448669299483Z" fill="#b1dfd7" stroke="#b1dfd7"></path><path d="M909.5386074855924,308.25789853930473L968.2057792693377,353.92448669299483L1071.2169386260211,297.1101335249841Z" fill="#a4d6cc" stroke="#a4d6cc"></path><path d="M1071.2169386260211,297.1101335249841L968.2057792693377,353.92448669299483L1041.6008706577122,345.53354853764176Z" fill="#9bcec5" stroke="#9bcec5"></path><path d="M1071.2169386260211,297.1101335249841L1041.6008706577122,345.53354853764176L1192.8872899338603,373.6212802119553Z" fill="#8cc2ba" stroke="#8cc2ba"></path><path d="M1071.2169386260211,297.1101335249841L1192.8872899338603,373.6212802119553L1178.0718378536403,273.98253520950675Z" fill="#86bbb0" stroke="#86bbb0"></path><path d="M1178.0718378536403,273.98253520950675L1192.8872899338603,373.6212802119553L1239.4582393579185,277.046670075506Z" fill="#7cb2a7" stroke="#7cb2a7"></path><path d="M1239.4582393579185,277.046670075506L1192.8872899338603,373.6212802119553L1271.0409574396908,362.6139763556421Z" fill="#7aada4" stroke="#7aada4"></path><path d="M1239.4582393579185,277.046670075506L1271.0409574396908,362.6139763556421L1403.7331148795784,283.19018989801407Z" fill="#7da196" stroke="#7da196"></path><path d="M1403.7331148795784,283.19018989801407L1271.0409574396908,362.6139763556421L1359.7874781489372,391.3780869729817Z" fill="#7a9b93" stroke="#7a9b93"></path><path d="M1403.7331148795784,283.19018989801407L1359.7874781489372,391.3780869729817L1457.9749761149287,407.4297417886555Z" fill="#79908a" stroke="#79908a"></path><path d="M1403.7331148795784,283.19018989801407L1457.9749761149287,407.4297417886555L1474.5025254786015,297.62690333649516Z" fill="#7b8a81" stroke="#7b8a81"></path><path d="M1474.5025254786015,297.62690333649516L1457.9749761149287,407.4297417886555L1607.3752305284142,357.3977109976113Z" fill="#79807d" stroke="#79807d"></path><path d="M1474.5025254786015,297.62690333649516L1607.3752305284142,357.3977109976113L1603.2341545075178,265.81216456368566Z" fill="#7d8079" stroke="#7d8079"></path><path d="M-18.121403586119413,415.07763070985675L-21.59238688647747,464.246356356889L20.41741007938981,468.8935606367886Z" fill="#9f9e79" stroke="#9f9e79"></path><path d="M-18.121403586119413,415.07763070985675L20.41741007938981,468.8935606367886L71.70770797878504,403.199060279876Z" fill="#aea782" stroke="#aea782"></path><path d="M71.70770797878504,403.199060279876L20.41741007938981,468.8935606367886L150.05139868706465,460.72244346141815Z" fill="#afb18a" stroke="#afb18a"></path><path d="M71.70770797878504,403.199060279876L150.05139868706465,460.72244346141815L157.2906126640737,397.1116997860372Z" fill="#c2be97" stroke="#c2be97"></path><path d="M157.2906126640737,397.1116997860372L150.05139868706465,460.72244346141815L300.9184831008315,398.57254346832633Z" fill="#cfcea6" stroke="#cfcea6"></path><path d="M300.9184831008315,398.57254346832633L150.05139868706465,460.72244346141815L309.77753473445773,529.6140514872968Z" fill="#c0d0a8" stroke="#c0d0a8"></path><path d="M300.9184831008315,398.57254346832633L309.77753473445773,529.6140514872968L409.876546561718,505.6011936068535Z" fill="#bed7b6" stroke="#bed7b6"></path><path d="M300.9184831008315,398.57254346832633L409.876546561718,505.6011936068535L400.4667042940855,375.79362865537405Z" fill="#d9e2c5" stroke="#d9e2c5"></path><path d="M400.4667042940855,375.79362865537405L409.876546561718,505.6011936068535L519.3064212426543,366.52353992685676Z" fill="#e4ecd6" stroke="#e4ecd6"></path><path d="M519.3064212426543,366.52353992685676L409.876546561718,505.6011936068535L457.59614054113626,531.4697639085352Z" fill="#cbe6d0" stroke="#cbe6d0"></path><path d="M519.3064212426543,366.52353992685676L457.59614054113626,531.4697639085352L617.0366853475571,532.5763477943838Z" fill="#c2e7d4" stroke="#c2e7d4"></path><path d="M519.3064212426543,366.52353992685676L617.0366853475571,532.5763477943838L600.7036872208118,354.20520912855864Z" fill="#dbf0e3" stroke="#dbf0e3"></path><path d="M600.7036872208118,354.20520912855864L617.0366853475571,532.5763477943838L711.5037880837917,401.1399507150054Z" fill="#cfeee6" stroke="#cfeee6"></path><path d="M711.5037880837917,401.1399507150054L617.0366853475571,532.5763477943838L709.975066781044,523.2063612900674Z" fill="#afe6de" stroke="#afe6de"></path><path d="M711.5037880837917,401.1399507150054L709.975066781044,523.2063612900674L795.0663872249424,488.5373454168439Z" fill="#aee6e1" stroke="#aee6e1"></path><path d="M711.5037880837917,401.1399507150054L795.0663872249424,488.5373454168439L861.5898256748915,357.94515796005726Z" fill="#bee9e5" stroke="#bee9e5"></path><path d="M861.5898256748915,357.94515796005726L795.0663872249424,488.5373454168439L908.0226382054389,503.7793065421283Z" fill="#9edcd7" stroke="#9edcd7"></path><path d="M861.5898256748915,357.94515796005726L908.0226382054389,503.7793065421283L968.2057792693377,353.92448669299483Z" fill="#a7ddd9" stroke="#a7ddd9"></path><path d="M968.2057792693377,353.92448669299483L908.0226382054389,503.7793065421283L1072.7232067286968,515.7761894911528Z" fill="#7eccc5" stroke="#7eccc5"></path><path d="M968.2057792693377,353.92448669299483L1072.7232067286968,515.7761894911528L1041.6008706577122,345.53354853764176Z" fill="#90ccc8" stroke="#90ccc8"></path><path d="M1041.6008706577122,345.53354853764176L1072.7232067286968,515.7761894911528L1192.8872899338603,373.6212802119553Z" fill="#7fbfba" stroke="#7fbfba"></path><path d="M1192.8872899338603,373.6212802119553L1072.7232067286968,515.7761894911528L1118.134698830545,531.2129047699273Z" fill="#5bb1aa" stroke="#5bb1aa"></path><path d="M1192.8872899338603,373.6212802119553L1118.134698830545,531.2129047699273L1290.6400298140943,469.5450890995562Z" fill="#56a8a1" stroke="#56a8a1"></path><path d="M1192.8872899338603,373.6212802119553L1290.6400298140943,469.5450890995562L1271.0409574396908,362.6139763556421Z" fill="#72a8a4" stroke="#72a8a4"></path><path d="M1271.0409574396908,362.6139763556421L1290.6400298140943,469.5450890995562L1359.7874781489372,391.3780869729817Z" fill="#6f9e9a" stroke="#6f9e9a"></path><path d="M1359.7874781489372,391.3780869729817L1290.6400298140943,469.5450890995562L1368.1986971758306,530.5352952517569Z" fill="#539089" stroke="#539089"></path><path d="M1359.7874781489372,391.3780869729817L1368.1986971758306,530.5352952517569L1459.2437489330769,501.39782482758164Z" fill="#4d867e" stroke="#4d867e"></path><path d="M1359.7874781489372,391.3780869729817L1459.2437489330769,501.39782482758164L1457.9749761149287,407.4297417886555Z" fill="#628781" stroke="#628781"></path><path d="M1457.9749761149287,407.4297417886555L1459.2437489330769,501.39782482758164L1624.2369179055095,494.43745225667953Z" fill="#517471" stroke="#517471"></path><path d="M1457.9749761149287,407.4297417886555L1624.2369179055095,494.43745225667953L1607.3752305284142,357.3977109976113Z" fill="#697b7a" stroke="#697b7a"></path><path d="M-21.59238688647747,464.246356356889L-78.71900452300906,629.8941164650023L63.92560448497534,581.5891322679818Z" fill="#70855c" stroke="#70855c"></path><path d="M-21.59238688647747,464.246356356889L63.92560448497534,581.5891322679818L20.41741007938981,468.8935606367886Z" fill="#889b73" stroke="#889b73"></path><path d="M20.41741007938981,468.8935606367886L63.92560448497534,581.5891322679818L150.05139868706465,460.72244346141815Z" fill="#91a77e" stroke="#91a77e"></path><path d="M150.05139868706465,460.72244346141815L63.92560448497534,581.5891322679818L133.62896248698235,627.7853982336819Z" fill="#859f75" stroke="#859f75"></path><path d="M150.05139868706465,460.72244346141815L133.62896248698235,627.7853982336819L297.1818288974464,583.1629421748221Z" fill="#91af84" stroke="#91af84"></path><path d="M150.05139868706465,460.72244346141815L297.1818288974464,583.1629421748221L309.77753473445773,529.6140514872968Z" fill="#a2c69b" stroke="#a2c69b"></path><path d="M309.77753473445773,529.6140514872968L297.1818288974464,583.1629421748221L411.945979539305,590.6820494867861Z" fill="#9cc09c" stroke="#9cc09c"></path><path d="M309.77753473445773,529.6140514872968L411.945979539305,590.6820494867861L409.876546561718,505.6011936068535Z" fill="#a5cead" stroke="#a5cead"></path><path d="M409.876546561718,505.6011936068535L411.945979539305,590.6820494867861L457.59614054113626,531.4697639085352Z" fill="#a8d2b7" stroke="#a8d2b7"></path><path d="M457.59614054113626,531.4697639085352L411.945979539305,590.6820494867861L465.36262664943933,567.0156658440828Z" fill="#a3cdb3" stroke="#a3cdb3"></path><path d="M457.59614054113626,531.4697639085352L465.36262664943933,567.0156658440828L617.0366853475571,532.5763477943838Z" fill="#a7d8c3" stroke="#a7d8c3"></path><path d="M617.0366853475571,532.5763477943838L465.36262664943933,567.0156658440828L594.9448232538998,609.489881824702Z" fill="#9ccfbd" stroke="#9ccfbd"></path><path d="M617.0366853475571,532.5763477943838L594.9448232538998,609.489881824702L684.478837121278,582.7829334139824Z" fill="#93cdc0" stroke="#93cdc0"></path><path d="M617.0366853475571,532.5763477943838L684.478837121278,582.7829334139824L709.975066781044,523.2063612900674Z" fill="#97d8cd" stroke="#97d8cd"></path><path d="M709.975066781044,523.2063612900674L684.478837121278,582.7829334139824L837.8086380288005,643.546903245151Z" fill="#82c8c0" stroke="#82c8c0"></path><path d="M709.975066781044,523.2063612900674L837.8086380288005,643.546903245151L795.0663872249424,488.5373454168439Z" fill="#83cfc7" stroke="#83cfc7"></path><path d="M795.0663872249424,488.5373454168439L837.8086380288005,643.546903245151L908.0226382054389,503.7793065421283Z" fill="#75cac1" stroke="#75cac1"></path><path d="M908.0226382054389,503.7793065421283L837.8086380288005,643.546903245151L903.3865677192807,628.4911931864917Z" fill="#60b5ad" stroke="#60b5ad"></path><path d="M908.0226382054389,503.7793065421283L903.3865677192807,628.4911931864917L1072.7232067286968,515.7761894911528Z" fill="#5abbb3" stroke="#5abbb3"></path><path d="M1072.7232067286968,515.7761894911528L903.3865677192807,628.4911931864917L1079.9298907071352,643.9590880833566Z" fill="#43a198" stroke="#43a198"></path><path d="M1072.7232067286968,515.7761894911528L1079.9298907071352,643.9590880833566L1118.134698830545,531.2129047699273Z" fill="#3fa198" stroke="#3fa198"></path><path d="M1118.134698830545,531.2129047699273L1079.9298907071352,643.9590880833566L1148.9525483734906,581.2409962527454Z" fill="#34958c" stroke="#34958c"></path><path d="M1118.134698830545,531.2129047699273L1148.9525483734906,581.2409962527454L1290.6400298140943,469.5450890995562Z" fill="#379f96" stroke="#379f96"></path><path d="M1290.6400298140943,469.5450890995562L1148.9525483734906,581.2409962527454L1272.2705010324717,641.2109605409205Z" fill="#2a8980" stroke="#2a8980"></path><path d="M1290.6400298140943,469.5450890995562L1272.2705010324717,641.2109605409205L1368.1986971758306,530.5352952517569Z" fill="#2f837a" stroke="#2f837a"></path><path d="M1368.1986971758306,530.5352952517569L1272.2705010324717,641.2109605409205L1390.6400822289288,569.5451491139829Z" fill="#267269" stroke="#267269"></path><path d="M1368.1986971758306,530.5352952517569L1390.6400822289288,569.5451491139829L1459.2437489330769,501.39782482758164Z" fill="#327870" stroke="#327870"></path><path d="M1459.2437489330769,501.39782482758164L1390.6400822289288,569.5451491139829L1465.4112965613604,641.052920948714Z" fill="#28665d" stroke="#28665d"></path><path d="M1459.2437489330769,501.39782482758164L1465.4112965613604,641.052920948714L1583.3831943012774,580.8776432834566Z" fill="#275a54" stroke="#275a54"></path><path d="M1459.2437489330769,501.39782482758164L1583.3831943012774,580.8776432834566L1624.2369179055095,494.43745225667953Z" fill="#356a65" stroke="#356a65"></path><path d="M1624.2369179055095,494.43745225667953L1583.3831943012774,580.8776432834566L1617.2396505996585,908.122140802443Z" fill="#0f3a35" stroke="#0f3a35"></path><path d="M-78.71900452300906,629.8941164650023L-93.98645158857107,819.6605377085507L-56.44367503002286,731.5372689068317Z" fill="#3a3b1e" stroke="#3a3b1e"></path><path d="M-78.71900452300906,629.8941164650023L-56.44367503002286,731.5372689068317L83.88844590634108,680.0807185284793Z" fill="#4e5830" stroke="#4e5830"></path><path d="M-78.71900452300906,629.8941164650023L83.88844590634108,680.0807185284793L63.92560448497534,581.5891322679818Z" fill="#61724a" stroke="#61724a"></path><path d="M63.92560448497534,581.5891322679818L83.88844590634108,680.0807185284793L133.62896248698235,627.7853982336819Z" fill="#6d8057" stroke="#6d8057"></path><path d="M133.62896248698235,627.7853982336819L83.88844590634108,680.0807185284793L181.39801817014813,751.6809859871864Z" fill="#63744b" stroke="#63744b"></path><path d="M133.62896248698235,627.7853982336819L181.39801817014813,751.6809859871864L240.9604923799634,713.8249188102782Z" fill="#697b50" stroke="#697b50"></path><path d="M133.62896248698235,627.7853982336819L240.9604923799634,713.8249188102782L297.1818288974464,583.1629421748221Z" fill="#7e976c" stroke="#7e976c"></path><path d="M297.1818288974464,583.1629421748221L240.9604923799634,713.8249188102782L346.07177747413516,750.4127922467887Z" fill="#79916b" stroke="#79916b"></path><path d="M297.1818288974464,583.1629421748221L346.07177747413516,750.4127922467887L411.945979539305,590.6820494867861Z" fill="#88a785" stroke="#88a785"></path><path d="M411.945979539305,590.6820494867861L346.07177747413516,750.4127922467887L469.6950384043157,734.5504160225391Z" fill="#7d9b7e" stroke="#7d9b7e"></path><path d="M411.945979539305,590.6820494867861L469.6950384043157,734.5504160225391L465.36262664943933,567.0156658440828Z" fill="#91b59c" stroke="#91b59c"></path><path d="M465.36262664943933,567.0156658440828L469.6950384043157,734.5504160225391L594.9448232538998,609.489881824702Z" fill="#8eb6a1" stroke="#8eb6a1"></path><path d="M594.9448232538998,609.489881824702L469.6950384043157,734.5504160225391L638.2167768105865,737.6715630665421Z" fill="#79a291" stroke="#79a291"></path><path d="M594.9448232538998,609.489881824702L638.2167768105865,737.6715630665421L680.741451755166,717.1609757095575Z" fill="#73a499" stroke="#73a499"></path><path d="M594.9448232538998,609.489881824702L680.741451755166,717.1609757095575L684.478837121278,582.7829334139824Z" fill="#80b7ac" stroke="#80b7ac"></path><path d="M684.478837121278,582.7829334139824L680.741451755166,717.1609757095575L788.0590341053903,723.056296557188Z" fill="#6faaa3" stroke="#6faaa3"></path><path d="M684.478837121278,582.7829334139824L788.0590341053903,723.056296557188L837.8086380288005,643.546903245151Z" fill="#6aada6" stroke="#6aada6"></path><path d="M837.8086380288005,643.546903245151L788.0590341053903,723.056296557188L932.5408283807337,741.9935444369912Z" fill="#499189" stroke="#499189"></path><path d="M837.8086380288005,643.546903245151L932.5408283807337,741.9935444369912L903.3865677192807,628.4911931864917Z" fill="#499790" stroke="#499790"></path><path d="M903.3865677192807,628.4911931864917L932.5408283807337,741.9935444369912L1026.0145205445588,689.8896784894168Z" fill="#368b83" stroke="#368b83"></path><path d="M903.3865677192807,628.4911931864917L1026.0145205445588,689.8896784894168L1079.9298907071352,643.9590880833566Z" fill="#368f86" stroke="#368f86"></path><path d="M1079.9298907071352,643.9590880833566L1026.0145205445588,689.8896784894168L1186.022431831807,699.1959061101079Z" fill="#1e776e" stroke="#1e776e"></path><path d="M1079.9298907071352,643.9590880833566L1186.022431831807,699.1959061101079L1148.9525483734906,581.2409962527454Z" fill="#207d75" stroke="#207d75"></path><path d="M1148.9525483734906,581.2409962527454L1186.022431831807,699.1959061101079L1272.2705010324717,641.2109605409205Z" fill="#15736b" stroke="#15736b"></path><path d="M1272.2705010324717,641.2109605409205L1186.022431831807,699.1959061101079L1290.2087524160743,721.056011132896Z" fill="#085b52" stroke="#085b52"></path><path d="M1272.2705010324717,641.2109605409205L1290.2087524160743,721.056011132896L1412.7920339815319,736.4533447474241Z" fill="#054a41" stroke="#054a41"></path><path d="M1272.2705010324717,641.2109605409205L1412.7920339815319,736.4533447474241L1390.6400822289288,569.5451491139829Z" fill="#13564e" stroke="#13564e"></path><path d="M1390.6400822289288,569.5451491139829L1412.7920339815319,736.4533447474241L1465.4112965613604,641.052920948714Z" fill="#134c43" stroke="#134c43"></path><path d="M1465.4112965613604,641.052920948714L1412.7920339815319,736.4533447474241L1510.7211717776954,717.6197220571339Z" fill="#05342b" stroke="#05342b"></path><path d="M1465.4112965613604,641.052920948714L1510.7211717776954,717.6197220571339L1561.8036098405719,677.710842397064Z" fill="#0a332f" stroke="#0a332f"></path><path d="M1465.4112965613604,641.052920948714L1561.8036098405719,677.710842397064L1583.3831943012774,580.8776432834566Z" fill="#17443f" stroke="#17443f"></path><path d="M1583.3831943012774,580.8776432834566L1561.8036098405719,677.710842397064L1593.6277942359447,863.2595784775913Z" fill="#032925" stroke="#032925"></path><path d="M1583.3831943012774,580.8776432834566L1593.6277942359447,863.2595784775913L1617.2396505996585,908.122140802443Z" fill="#000d09" stroke="#000d09"></path><path d="M-56.44367503002286,731.5372689068317L-93.98645158857107,819.6605377085507L66.93364577367902,817.2217432968318Z" fill="#422e07" stroke="#422e07"></path><path d="M-56.44367503002286,731.5372689068317L66.93364577367902,817.2217432968318L83.88844590634108,680.0807185284793Z" fill="#4b4b23" stroke="#4b4b23"></path><path d="M83.88844590634108,680.0807185284793L66.93364577367902,817.2217432968318L181.39801817014813,751.6809859871864Z" fill="#585930" stroke="#585930"></path><path d="M181.39801817014813,751.6809859871864L66.93364577367902,817.2217432968318L126.2334386818111,842.9521832801402Z" fill="#5a481f" stroke="#5a481f"></path><path d="M181.39801817014813,751.6809859871864L126.2334386818111,842.9521832801402L306.0291183553636,795.0385421141982Z" fill="#675b31" stroke="#675b31"></path><path d="M181.39801817014813,751.6809859871864L306.0291183553636,795.0385421141982L240.9604923799634,713.8249188102782Z" fill="#6c7247" stroke="#6c7247"></path><path d="M240.9604923799634,713.8249188102782L306.0291183553636,795.0385421141982L346.07177747413516,750.4127922467887Z" fill="#707952" stroke="#707952"></path><path d="M346.07177747413516,750.4127922467887L306.0291183553636,795.0385421141982L346.2880173511803,800.5334309116006Z" fill="#72724f" stroke="#72724f"></path><path d="M346.07177747413516,750.4127922467887L346.2880173511803,800.5334309116006L469.6950384043157,734.5504160225391Z" fill="#767f61" stroke="#767f61"></path><path d="M469.6950384043157,734.5504160225391L346.2880173511803,800.5334309116006L515.7358391210437,837.4876335076988Z" fill="#797b61" stroke="#797b61"></path><path d="M469.6950384043157,734.5504160225391L515.7358391210437,837.4876335076988L638.2167768105865,737.6715630665421Z" fill="#758774" stroke="#758774"></path><path d="M638.2167768105865,737.6715630665421L515.7358391210437,837.4876335076988L629.0688137710094,805.2259225398302Z" fill="#707e70" stroke="#707e70"></path><path d="M638.2167768105865,737.6715630665421L629.0688137710094,805.2259225398302L679.4571537524462,789.5115111023188Z" fill="#6b8479" stroke="#6b8479"></path><path d="M638.2167768105865,737.6715630665421L679.4571537524462,789.5115111023188L680.741451755166,717.1609757095575Z" fill="#698f85" stroke="#698f85"></path><path d="M680.741451755166,717.1609757095575L679.4571537524462,789.5115111023188L788.0590341053903,723.056296557188Z" fill="#64918a" stroke="#64918a"></path><path d="M788.0590341053903,723.056296557188L679.4571537524462,789.5115111023188L806.5741679631174,838.5739589296281Z" fill="#5b7e77" stroke="#5b7e77"></path><path d="M788.0590341053903,723.056296557188L806.5741679631174,838.5739589296281L932.5408283807337,741.9935444369912Z" fill="#477a73" stroke="#477a73"></path><path d="M932.5408283807337,741.9935444369912L806.5741679631174,838.5739589296281L960.4085129126906,795.111042149365Z" fill="#3a6b64" stroke="#3a6b64"></path><path d="M932.5408283807337,741.9935444369912L960.4085129126906,795.111042149365L1026.0145205445588,689.8896784894168Z" fill="#2a746c" stroke="#2a746c"></path><path d="M1026.0145205445588,689.8896784894168L960.4085129126906,795.111042149365L1040.7695255242288,795.5416745133698Z" fill="#24675f" stroke="#24675f"></path><path d="M1026.0145205445588,689.8896784894168L1040.7695255242288,795.5416745133698L1186.022431831807,699.1959061101079Z" fill="#16675f" stroke="#16675f"></path><path d="M1186.022431831807,699.1959061101079L1040.7695255242288,795.5416745133698L1176.4910405687988,803.4523930214345Z" fill="#0c5149" stroke="#0c5149"></path><path d="M1186.022431831807,699.1959061101079L1176.4910405687988,803.4523930214345L1290.2087524160743,721.056011132896Z" fill="#004c44" stroke="#004c44"></path><path d="M1290.2087524160743,721.056011132896L1176.4910405687988,803.4523930214345L1298.2537663169205,785.3901843726635Z" fill="#003c34" stroke="#003c34"></path><path d="M1290.2087524160743,721.056011132896L1298.2537663169205,785.3901843726635L1412.7920339815319,736.4533447474241Z" fill="#00372f" stroke="#00372f"></path><path d="M1412.7920339815319,736.4533447474241L1298.2537663169205,785.3901843726635L1351.010586898774,847.0952644757926Z" fill="#00251d" stroke="#00251d"></path><path d="M1412.7920339815319,736.4533447474241L1351.010586898774,847.0952644757926L1466.401610095054,829.4967102259398Z" fill="#00160e" stroke="#00160e"></path><path d="M1412.7920339815319,736.4533447474241L1466.401610095054,829.4967102259398L1510.7211717776954,717.6197220571339Z" fill="#001d15" stroke="#001d15"></path><path d="M1510.7211717776954,717.6197220571339L1466.401610095054,829.4967102259398L1593.6277942359447,863.2595784775913Z" fill="#000602" stroke="#000602"></path><path d="M1510.7211717776954,717.6197220571339L1593.6277942359447,863.2595784775913L1561.8036098405719,677.710842397064Z" fill="#001914" stroke="#001914"></path><path d="M-93.98645158857107,819.6605377085507L-52.45563801378012,962.332891561091L66.93364577367902,817.2217432968318Z" fill="#422300" stroke="#422300"></path><path d="M66.93364577367902,817.2217432968318L-52.45563801378012,962.332891561091L78.45253670588136,934.8825303837657Z" fill="#4b2f0b" stroke="#4b2f0b"></path><path d="M66.93364577367902,817.2217432968318L78.45253670588136,934.8825303837657L126.2334386818111,842.9521832801402Z" fill="#553b16" stroke="#553b16"></path><path d="M126.2334386818111,842.9521832801402L78.45253670588136,934.8825303837657L179.01890613138676,947.1703046001494Z" fill="#5b431e" stroke="#5b431e"></path><path d="M126.2334386818111,842.9521832801402L179.01890613138676,947.1703046001494L306.0291183553636,795.0385421141982Z" fill="#67522c" stroke="#67522c"></path><path d="M306.0291183553636,795.0385421141982L179.01890613138676,947.1703046001494L257.66039475798607,974.1205210238695Z" fill="#6d5b34" stroke="#6d5b34"></path><path d="M306.0291183553636,795.0385421141982L257.66039475798607,974.1205210238695L348.75757986679673,934.6467306651175Z" fill="#70613f" stroke="#70613f"></path><path d="M306.0291183553636,795.0385421141982L348.75757986679673,934.6467306651175L346.2880173511803,800.5334309116006Z" fill="#726445" stroke="#726445"></path><path d="M346.2880173511803,800.5334309116006L348.75757986679673,934.6467306651175L515.7358391210437,837.4876335076988Z" fill="#776c53" stroke="#776c53"></path><path d="M515.7358391210437,837.4876335076988L348.75757986679673,934.6467306651175L507.33473574742675,964.9507531709969Z" fill="#7a725e" stroke="#7a725e"></path><path d="M515.7358391210437,837.4876335076988L507.33473574742675,964.9507531709969L615.0499200075865,896.7395507544279Z" fill="#757567" stroke="#757567"></path><path d="M515.7358391210437,837.4876335076988L615.0499200075865,896.7395507544279L629.0688137710094,805.2259225398302Z" fill="#717569" stroke="#717569"></path><path d="M629.0688137710094,805.2259225398302L615.0499200075865,896.7395507544279L679.4571537524462,789.5115111023188Z" fill="#6b756d" stroke="#6b756d"></path><path d="M679.4571537524462,789.5115111023188L615.0499200075865,896.7395507544279L714.8748196661472,957.9760875925422Z" fill="#68756f" stroke="#68756f"></path><path d="M679.4571537524462,789.5115111023188L714.8748196661472,957.9760875925422L806.5741679631174,838.5739589296281Z" fill="#607371" stroke="#607371"></path><path d="M806.5741679631174,838.5739589296281L714.8748196661472,957.9760875925422L837.9214849695563,900.597329493612Z" fill="#546e6b" stroke="#546e6b"></path><path d="M806.5741679631174,838.5739589296281L837.9214849695563,900.597329493612L960.4085129126906,795.111042149365Z" fill="#426461" stroke="#426461"></path><path d="M960.4085129126906,795.111042149365L837.9214849695563,900.597329493612L942.3458733409643,911.2104232795537Z" fill="#375f5b" stroke="#375f5b"></path><path d="M960.4085129126906,795.111042149365L942.3458733409643,911.2104232795537L1058.3560161478817,908.4612719155848Z" fill="#285551" stroke="#285551"></path><path d="M960.4085129126906,795.111042149365L1058.3560161478817,908.4612719155848L1040.7695255242288,795.5416745133698Z" fill="#22504c" stroke="#22504c"></path><path d="M1040.7695255242288,795.5416745133698L1058.3560161478817,908.4612719155848L1176.4910405687988,803.4523930214345Z" fill="#144440" stroke="#144440"></path><path d="M1176.4910405687988,803.4523930214345L1058.3560161478817,908.4612719155848L1177.1273409761488,935.6456802412868Z" fill="#0c3d39" stroke="#0c3d39"></path><path d="M1176.4910405687988,803.4523930214345L1177.1273409761488,935.6456802412868L1298.2537663169205,785.3901843726635Z" fill="#00302c" stroke="#00302c"></path><path d="M1298.2537663169205,785.3901843726635L1177.1273409761488,935.6456802412868L1299.8420550487936,961.5648505091667Z" fill="#002925" stroke="#002925"></path><path d="M1298.2537663169205,785.3901843726635L1299.8420550487936,961.5648505091667L1351.010586898774,847.0952644757926Z" fill="#00201c" stroke="#00201c"></path><path d="M1351.010586898774,847.0952644757926L1299.8420550487936,961.5648505091667L1354.7357499226928,973.1782988831401Z" fill="#001d19" stroke="#001d19"></path><path d="M1351.010586898774,847.0952644757926L1354.7357499226928,973.1782988831401L1507.7810408174992,909.6568367257714Z" fill="#00110d" stroke="#00110d"></path><path d="M1351.010586898774,847.0952644757926L1507.7810408174992,909.6568367257714L1466.401610095054,829.4967102259398Z" fill="#000b07" stroke="#000b07"></path><path d="M1466.401610095054,829.4967102259398L1507.7810408174992,909.6568367257714L1593.6277942359447,863.2595784775913Z" fill="#000000" stroke="#000000"></path><path d="M1593.6277942359447,863.2595784775913L1507.7810408174992,909.6568367257714L1617.2396505996585,908.122140802443Z" fill="#000000" stroke="#000000"></path><path d="M-52.45563801378012,962.332891561091L257.66039475798607,974.1205210238695L179.01890613138676,947.1703046001494Z" fill="#5b431e" stroke="#5b431e"></path><path d="M-52.45563801378012,962.332891561091L179.01890613138676,947.1703046001494L78.45253670588136,934.8825303837657Z" fill="#513712" stroke="#513712"></path><path d="M257.66039475798607,974.1205210238695L1354.7357499226928,973.1782988831401L507.33473574742675,964.9507531709969Z" fill="#657572" stroke="#657572"></path><path d="M257.66039475798607,974.1205210238695L507.33473574742675,964.9507531709969L348.75757986679673,934.6467306651175Z" fill="#75684d" stroke="#75684d"></path><path d="M507.33473574742675,964.9507531709969L1354.7357499226928,973.1782988831401L714.8748196661472,957.9760875925422Z" fill="#446562" stroke="#446562"></path><path d="M507.33473574742675,964.9507531709969L714.8748196661472,957.9760875925422L615.0499200075865,896.7395507544279Z" fill="#6e756b" stroke="#6e756b"></path><path d="M714.8748196661472,957.9760875925422L1354.7357499226928,973.1782988831401L1299.8420550487936,961.5648505091667Z" fill="#0e3f3b" stroke="#0e3f3b"></path><path d="M714.8748196661472,957.9760875925422L1299.8420550487936,961.5648505091667L1177.1273409761488,935.6456802412868Z" fill="#194945" stroke="#194945"></path><path d="M714.8748196661472,957.9760875925422L1177.1273409761488,935.6456802412868L942.3458733409643,911.2104232795537Z" fill="#305c58" stroke="#305c58"></path><path d="M714.8748196661472,957.9760875925422L942.3458733409643,911.2104232795537L837.9214849695563,900.597329493612Z" fill="#4a6865" stroke="#4a6865"></path><path d="M942.3458733409643,911.2104232795537L1177.1273409761488,935.6456802412868L1058.3560161478817,908.4612719155848Z" fill="#1a4a46" stroke="#1a4a46"></path><path d="M1354.7357499226928,973.1782988831401L1617.2396505996585,908.122140802443L1507.7810408174992,909.6568367257714Z" fill="#000300" stroke="#000300"></path></g><filter id="noise"><feTurbulence type="fractalNoise" in="fillPaint" fill="#F00" baseFrequency="0.7" numOctaves="10" stitchTiles="stitch"></feTurbulence><feComponentTransfer><feFuncR type="linear" slope="2" intercept="-.5"></feFuncR><feFuncG type="linear" slope="2" intercept="-.5"></feFuncG><feFuncB type="linear" slope="2" intercept="-.5"></feFuncB></feComponentTransfer><feColorMatrix type="matrix" values="0.3333 0.3333 0.3333 0 0 
 0.3333 0.3333 0.3333 0 0 
 0.3333 0.3333 0.3333 0 0 
 0 0 0 1 0"></feColorMatrix></filter><rect opacity="0.4000000000000001" width="100%" height="100%" filter="url(#noise)"></rect></svg>